<svg xmlns="http://www.w3.org/2000/svg" viewBox="0 0 796.95 394.63"><defs><style>.cls-1{fill:#f5f5f5;}.cls-2{fill:#ffad3d;}.cls-3{fill:#88b361;}.cls-4{fill:none;}</style></defs><g id="Layer_2" data-name="Layer 2"><g id="Layer_1-2" data-name="Layer 1"><path class="cls-1" d="M156.42,143.87,121.6,162.62l-18.75-27.86s-24.31,19.69-32.15-4.28c-2.66-8.17,9.24-22.64,24.11-21.43.2-6.63-4.17-17.13,7.63-24.11,14.27-8.44,22.71.8,26.32,4,5.83-4.62,18.84-19.12,33.15-3.42,8.24,9-8.24,26.92-16.88,26.72C146.64,119.29,156.42,143.87,156.42,143.87Z"/><path class="cls-2" d="M169.34,166.7a22.7,22.7,0,0,1-45.4,0,2.3,2.3,0,0,1,0-.37L159.44,148A22.7,22.7,0,0,1,169.34,166.7Z"/><path class="cls-2" d="M224.39,191.82l.6,24.71-58.46,1.4s-2.81,25.51-4.62,29.33c22.5.6,54.64,14.87,61.67,32.35,5.83-2.41,19.29.2,21.7,6.83-7,4.62-38.37,24.1-38.37,24.1s-11.85-38.37-49.22-45.4c-5.42,8.24-16.88,28.56-36.36,28.93-10.65.2-20.29-2.61-23.91-4.82-3,3.21-9.84,16.07-24.11,8.84,3.22-7.44,21.9-39.58,21.9-39.58s14.37,12.07,26.12,11.45c22.9-1.2,23.3-18.48,22.5-29.93s-1.21-36.76-1.21-36.76-3.81-10.45,16.68-10.85S224.39,191.82,224.39,191.82Z"/><path class="cls-2" d="M227.2,192l41.38-.2s-10.84,14.66-41,15.87C227.6,198,227.2,192,227.2,192Z"/><polygon class="cls-3" points="307.14 189.34 213.31 188.78 213.35 183.78 307.18 184.33 307.14 189.34"/><path class="cls-3" d="M304.87,181h-71a.75.75,0,0,1-.62.33H181.59a.73.73,0,0,1,0-1.46h34.76a41.58,41.58,0,0,1,1.66-8.16H186.42a1.76,1.76,0,1,1,0-3.51h32.82a43.2,43.2,0,0,1,3.79-7.38H198.28a1.32,1.32,0,0,1-1.32-1.32,1.3,1.3,0,0,1,1.32-1.31h26.56a43.17,43.17,0,0,1,7.68-8H171.75a1.32,1.32,0,0,1-1.31-1.32,1.3,1.3,0,0,1,1.31-1.31h64.36a43.94,43.94,0,0,1,20.37-7.14,4.56,4.56,0,0,1-1-2.81,4.62,4.62,0,1,1,8.33,2.75A44.46,44.46,0,0,1,304.87,181Z"/><path class="cls-1" d="M329.36,134.94c0-6.54-.22-13.29-4.14-15.26-3.49-1.74-1.75-3.7,1.3-3.7h22.24c2.83,0,5.23,2,7,4.36,14.38-6.11,32.7-5.89,46.65.87,40.76,19.4,36.84,115.54-2.84,135.81-17.22,8.73-44,6.54-64.74,6.33h-8.29c-3,0-4.79-2.18-1.3-3.71,3.92-2,4.14-8.72,4.14-15.26Zm53.41,107c21.14-17.22,23.32-89.38,1.52-105.95a21,21,0,0,0-26.16.44v111.4C367.07,248.09,376.23,247.43,382.77,242Z"/><path class="cls-1" d="M473.5,220.18a74.33,74.33,0,0,0,.66,10c.87,8.28,2.83,14.61,5.67,18.53,5.67,7.41,17.87,3.49,24.85-10a64.23,64.23,0,0,0,7-25.07h8.5c0,17.66-14.17,48.18-35.32,51.23-12.43,1.53-23.11-1.74-29.43-8.06-20.27-20.06-12.42-69.55.87-79.36,10-7.19,25.29-7,34.67-2a16.44,16.44,0,0,1,8.28,10.68C502.94,201.22,492.47,219.31,473.5,220.18Zm5.89-31.83c-2.83,4.58-4.58,12-5.23,20.28,8.07.22,13.95-7.2,15.48-14.17C491.38,186,485.28,178.76,479.39,188.35Z"/><path class="cls-1" d="M550.3,180.29c16.69-11.58,47-10.77,61,3.5,17,17.63,17.41,52,.9,70.13-14.36,15.62-44,18-62.65,5.52C523.19,241.54,525,198.06,550.3,180.29Zm47.21,38.5c-.54-47.66-34.65-47.52-38.6-.54C554.61,270.35,598.22,270.89,597.51,218.79Z"/><path class="cls-1" d="M675,200.56l18.75-26.81h8.94l-24.42,34.88L689.37,237c4.14,10.68,6.76,14.61,9.81,12.43,1.53-1.09,3.05-3.28,4.58-6.33,3-6.54,5.45-16.78,5-29.43h8.51c0,10.9-1.31,25.94-7.2,36.85-7.63,13.73-24.85,18.09-35.75,9.8-5.23-3.7-8.5-9.37-14-24l-.44-1.3-20.49,29.21h-8.94l26.16-37.28L640.1,185.08c-2-4.79-.43-11.77,4.8-11.77h22.23c3.06,0,5.67,2,2.84,3.71-3.27,2-.87,8.72,1.74,15.26Z"/><path class="cls-1" d="M322.48,290h3.25l4.88,8.43h.08l4.88-8.43h2.65l-6.46,11v8.05h-2.87V301Z"/><path class="cls-1" d="M338.37,297.24a7,7,0,1,1-2.09,5A6.83,6.83,0,0,1,338.37,297.24Zm8.08,1.73a3.93,3.93,0,0,0-3.08-1.31,4,4,0,0,0-3.11,1.31,5.06,5.06,0,0,0,0,6.54,4,4,0,0,0,3.11,1.31,3.9,3.9,0,0,0,3.08-1.31,5.12,5.12,0,0,0,0-6.54Z"/><path class="cls-1" d="M353.19,295.42h2.73v6.77a5.21,5.21,0,0,0,1.06,3.58,3.31,3.31,0,0,0,2.54,1.19,3.78,3.78,0,0,0,3-1.21,5.36,5.36,0,0,0,1-3.56v-6.77H366V303a6.14,6.14,0,0,1-6.52,6.35l-.87,0a7.5,7.5,0,0,1-1.08-.18,6.12,6.12,0,0,1-1.23-.4,5.18,5.18,0,0,1-1.16-.72,4.78,4.78,0,0,1-1-1.13,6.21,6.21,0,0,1-.7-1.67,8.57,8.57,0,0,1-.27-2.23Z"/><path class="cls-1" d="M384.5,295.42v2.4h-2.78c-1.37,0-2.05.44-2.05,1.31v.17a1.49,1.49,0,0,0,.63.86,10.19,10.19,0,0,0,1.35.88c.52.29,1,.62,1.57,1a5,5,0,0,1,1.32,1.38,3.32,3.32,0,0,1,.53,1.84c0,.17,0,.35,0,.55q-.45,3.27-4.58,3.27h-3v-2.43h3.22a2.51,2.51,0,0,0,1.43-.37,1.08,1.08,0,0,0,.56-.94,1.12,1.12,0,0,0,0-.24,1.64,1.64,0,0,0-.71-.9,12.83,12.83,0,0,0-1.36-.85,16.06,16.06,0,0,1-1.52-.91,4.47,4.47,0,0,1-1.26-1.3,3.14,3.14,0,0,1-.52-1.8,3.44,3.44,0,0,1,1.32-2.86,5,5,0,0,1,3.18-1Z"/><path class="cls-1" d="M389.3,303a4.56,4.56,0,0,0,1.42,2.77,4,4,0,0,0,2.86,1.1,3.92,3.92,0,0,0,3.36-1.63l1.85,1.85a6.84,6.84,0,0,1-2.33,1.69,7,7,0,0,1-2.88.6,6.71,6.71,0,0,1-5-2.07,7.17,7.17,0,0,1,0-10,6.71,6.71,0,0,1,5-2.07,6.56,6.56,0,0,1,4.92,2.07,7,7,0,0,1,2,5c0,.18,0,.42,0,.71-1.49,0-3.06,0-4.72,0Zm4.28-5.15a4.45,4.45,0,0,0-2.62.77,4,4,0,0,0-1.5,2.14h8.16a4.09,4.09,0,0,0-1.46-2.14A4.27,4.27,0,0,0,393.58,297.8Z"/><path class="cls-1" d="M403.23,309.06V288.61H406v20.45Z"/><path class="cls-1" d="M411.42,303a4.6,4.6,0,0,0,1.41,2.77,4,4,0,0,0,2.87,1.1,3.92,3.92,0,0,0,3.35-1.63l1.86,1.85a6.84,6.84,0,0,1-2.33,1.69,7,7,0,0,1-2.88.6,6.74,6.74,0,0,1-5-2.07,7.2,7.2,0,0,1,0-10,6.74,6.74,0,0,1,5-2.07,6.59,6.59,0,0,1,4.92,2.07,7,7,0,0,1,2,5c0,.18,0,.42,0,.71-1.49,0-3.07,0-4.72,0Zm4.28-5.15a4.45,4.45,0,0,0-2.62.77,3.94,3.94,0,0,0-1.5,2.14h8.15a4,4,0,0,0-1.46-2.14A4.21,4.21,0,0,0,415.7,297.8Z"/><path class="cls-1" d="M431.9,295.15a7,7,0,0,1,2.87.6,6.88,6.88,0,0,1,2.34,1.69l-1.86,1.86a3.93,3.93,0,0,0-3.35-1.64,4,4,0,0,0-3.11,1.31,5.06,5.06,0,0,0,0,6.54,4,4,0,0,0,3.11,1.31,3.92,3.92,0,0,0,3.35-1.63l1.86,1.85a6.88,6.88,0,0,1-2.34,1.69,7,7,0,0,1-2.87.6,7.09,7.09,0,0,1,0-14.18Z"/><path class="cls-1" d="M439.1,290h2.72v5.45h3.71v2.32h-3.71v4.5a4.16,4.16,0,0,0,1.22,3.12,4.32,4.32,0,0,0,3.15,1.19v2.51a7,7,0,0,1-5-1.95,6.42,6.42,0,0,1-2.07-4.87Z"/><path class="cls-1" d="M448.07,305.79h3.27v2.94l-1.2,3.6h-1.58l1.44-3.27h-1.93Z"/><path class="cls-1" d="M462.85,295.45h2.73l2.34,10.83H468l2.86-10.83h3.22l3.22,10.83h.05l2-10.83h2.46l-2.73,13.61h-3.49l-3.11-10.8h-.11l-2.81,10.8H465.9Z"/><path class="cls-1" d="M485.84,303a4.62,4.62,0,0,0,1.42,2.77,4,4,0,0,0,2.86,1.1,3.92,3.92,0,0,0,3.36-1.63l1.85,1.85a6.75,6.75,0,0,1-2.33,1.69,7,7,0,0,1-2.88.6,6.71,6.71,0,0,1-5-2.07,7.17,7.17,0,0,1,0-10,6.71,6.71,0,0,1,5-2.07,6.56,6.56,0,0,1,4.92,2.07,7,7,0,0,1,2,5c0,.18,0,.42,0,.71-1.49,0-3.06,0-4.72,0Zm4.28-5.15a4.45,4.45,0,0,0-2.62.77,4,4,0,0,0-1.5,2.14h8.16a4.09,4.09,0,0,0-1.46-2.14A4.27,4.27,0,0,0,490.12,297.8Z"/><path class="cls-1" d="M514.23,309.36a6.76,6.76,0,0,1-7.09-7.09,7.52,7.52,0,0,1,1.72-5.1,6.31,6.31,0,0,1,5-2h.06a6.65,6.65,0,0,1,1.7.21,5.08,5.08,0,0,1,1.33.5,9,9,0,0,1,.91.61,4.46,4.46,0,0,1,.56.51l.16.22v-8.59h2.73v13.66a7.87,7.87,0,0,1-.61,3.2,5.73,5.73,0,0,1-1.65,2.24,7.1,7.1,0,0,1-2.27,1.24A8.12,8.12,0,0,1,514.23,309.36Zm0-2.45a4.23,4.23,0,0,0,3.19-1.35,4.88,4.88,0,0,0,0-6.59,4.26,4.26,0,0,0-3.19-1.34,4.09,4.09,0,0,0-3.14,1.34,5.07,5.07,0,0,0,0,6.6A4.09,4.09,0,0,0,514.23,306.91Z"/><path class="cls-1" d="M526.64,303a4.56,4.56,0,0,0,1.42,2.77,4,4,0,0,0,2.86,1.1,3.91,3.91,0,0,0,3.35-1.63l1.86,1.85a6.84,6.84,0,0,1-2.33,1.69,7,7,0,0,1-2.88.6,6.7,6.7,0,0,1-5-2.07,7.17,7.17,0,0,1,0-10,6.7,6.7,0,0,1,5-2.07,6.58,6.58,0,0,1,4.92,2.07,7,7,0,0,1,2,5c0,.18,0,.42,0,.71-1.49,0-3.06,0-4.72,0Zm4.28-5.15a4.45,4.45,0,0,0-2.62.77,3.94,3.94,0,0,0-1.5,2.14H535a4.09,4.09,0,0,0-1.46-2.14A4.27,4.27,0,0,0,530.92,297.8Z"/><path class="cls-1" d="M540.57,309.06V288.61h2.73v20.45Z"/><path class="cls-1" d="M546.57,288.88h2.73v2.7h-2.73Zm0,6.54h2.73v13.64h-2.73Z"/><path class="cls-1" d="M559.12,295.15a7,7,0,0,1,2.88.6,6.84,6.84,0,0,1,2.33,1.69l-1.86,1.86a3.93,3.93,0,0,0-3.35-1.64A4,4,0,0,0,556,299a5.06,5.06,0,0,0,0,6.54,4,4,0,0,0,3.11,1.31,3.92,3.92,0,0,0,3.35-1.63l1.86,1.85a6.84,6.84,0,0,1-2.33,1.69,7,7,0,0,1-2.88.6,7.09,7.09,0,0,1,0-14.18Z"/><path class="cls-1" d="M566.24,288.88H569v2.7h-2.72Zm0,6.54H569v13.64h-2.72Z"/><path class="cls-1" d="M573.78,297.24a7,7,0,1,1-2.09,5A6.83,6.83,0,0,1,573.78,297.24Zm8.08,1.73a4,4,0,0,0-3.08-1.31,4,4,0,0,0-3.11,1.31,5.06,5.06,0,0,0,0,6.54,4,4,0,0,0,3.11,1.31,3.91,3.91,0,0,0,3.08-1.31,5.12,5.12,0,0,0,0-6.54Z"/><path class="cls-1" d="M588.6,295.42h2.73v6.77a5.21,5.21,0,0,0,1.06,3.58,3.3,3.3,0,0,0,2.54,1.19,3.75,3.75,0,0,0,3-1.21,5.36,5.36,0,0,0,1-3.56v-6.77h2.45V303a6.14,6.14,0,0,1-6.51,6.35l-.88,0a7.63,7.63,0,0,1-1.07-.18,6.12,6.12,0,0,1-1.23-.4,5.18,5.18,0,0,1-1.16-.72,4.78,4.78,0,0,1-1-1.13,5.63,5.63,0,0,1-.7-1.67,8.57,8.57,0,0,1-.27-2.23Z"/><path class="cls-1" d="M610.77,295.42v2.4H608c-1.37,0-2,.44-2,1.31v.17a1.49,1.49,0,0,0,.63.86,10.19,10.19,0,0,0,1.35.88c.52.29,1,.62,1.57,1a4.82,4.82,0,0,1,1.32,1.38,3.32,3.32,0,0,1,.53,1.84c0,.17,0,.35,0,.55q-.47,3.27-4.59,3.27h-3.05v-2.43h3.22a2.51,2.51,0,0,0,1.43-.37,1.08,1.08,0,0,0,.56-.94,1.12,1.12,0,0,0,0-.24,1.64,1.64,0,0,0-.71-.9,12.83,12.83,0,0,0-1.36-.85,16.06,16.06,0,0,1-1.52-.91,4.47,4.47,0,0,1-1.26-1.3,3.14,3.14,0,0,1-.52-1.8,3.44,3.44,0,0,1,1.32-2.86,5,5,0,0,1,3.18-1Z"/><path class="cls-1" d="M613.8,309.06V288.61h2.72v20.45Z"/><path class="cls-1" d="M630.05,295.45l2.59,0V303c0,3.48,0,5.82-.08,7a6.9,6.9,0,0,1-.4,2.18A6.08,6.08,0,0,1,631,314.2a5.35,5.35,0,0,1-2.15,1.46,8.69,8.69,0,0,1-3.18.54,7.92,7.92,0,0,1-1.94-.23,7.33,7.33,0,0,1-1.61-.56,11.38,11.38,0,0,1-1.17-.65,5.25,5.25,0,0,1-.76-.55L620,314l1.85-1.86c.15.13.35.28.59.45a8.34,8.34,0,0,0,1.36.7,4.68,4.68,0,0,0,1.85.44h.08a5.2,5.2,0,0,0,3-.89,3.14,3.14,0,0,0,1.17-2.71V308a4.57,4.57,0,0,1-1.67,1,6.11,6.11,0,0,1-2.12.38c-.31,0-.6,0-.87,0s-.63-.09-1.08-.18a6.22,6.22,0,0,1-1.22-.38,5.09,5.09,0,0,1-1.16-.74,5.27,5.27,0,0,1-1-1.13,5.77,5.77,0,0,1-.69-1.65,8.75,8.75,0,0,1-.27-2.26v-7.53h2.72v6.73a5.28,5.28,0,0,0,1.07,3.6,3.27,3.27,0,0,0,2.53,1.2c2.62,0,3.93-1.59,3.93-4.8Z"/><path class="cls-1" d="M650.37,309.36a6.76,6.76,0,0,1-7.09-7.09,7.52,7.52,0,0,1,1.72-5.1,6.31,6.31,0,0,1,5-2h.06a6.65,6.65,0,0,1,1.7.21,4.86,4.86,0,0,1,1.32.5,8.15,8.15,0,0,1,.92.61,4.46,4.46,0,0,1,.56.51l.16.22v-8.59h2.73v13.66a7.87,7.87,0,0,1-.62,3.2,5.54,5.54,0,0,1-1.65,2.24,7.05,7.05,0,0,1-2.26,1.24A8.12,8.12,0,0,1,650.37,309.36Zm0-2.45a4.23,4.23,0,0,0,3.19-1.35,4.88,4.88,0,0,0,0-6.59,4.26,4.26,0,0,0-3.19-1.34,4.07,4.07,0,0,0-3.14,1.34,5,5,0,0,0,0,6.6A4.07,4.07,0,0,0,650.37,306.91Z"/><path class="cls-1" d="M662.78,303a4.56,4.56,0,0,0,1.42,2.77,4,4,0,0,0,2.86,1.1,3.92,3.92,0,0,0,3.35-1.63l1.86,1.85a6.84,6.84,0,0,1-2.33,1.69,7,7,0,0,1-2.88.6,6.7,6.7,0,0,1-5-2.07,7.17,7.17,0,0,1,0-10,6.7,6.7,0,0,1,5-2.07,6.59,6.59,0,0,1,4.92,2.07,7,7,0,0,1,2,5c0,.18,0,.42,0,.71-1.49,0-3.07,0-4.72,0Zm4.28-5.15a4.45,4.45,0,0,0-2.62.77,3.94,3.94,0,0,0-1.5,2.14h8.15a4,4,0,0,0-1.45-2.14A4.27,4.27,0,0,0,667.06,297.8Z"/><path class="cls-1" d="M676.71,309.06V288.61h2.73v20.45Z"/><path class="cls-1" d="M682.71,288.88h2.73v2.7h-2.73Zm0,6.54h2.73v13.64h-2.73Z"/><path class="cls-1" d="M688.11,295.45H691l4.11,10.83h.09l4.11-10.83h2.65l-5.18,13.64h-3.47Z"/><path class="cls-1" d="M705.59,303a4.67,4.67,0,0,0,1.42,2.77,4,4,0,0,0,2.87,1.1,3.92,3.92,0,0,0,3.35-1.63l1.85,1.85a6.75,6.75,0,0,1-2.33,1.69,7,7,0,0,1-2.87.6,6.74,6.74,0,0,1-5-2.07,7.2,7.2,0,0,1,0-10,6.74,6.74,0,0,1,5-2.07,6.59,6.59,0,0,1,4.92,2.07,7,7,0,0,1,2,5c0,.18,0,.42,0,.71-1.5,0-3.07,0-4.72,0Zm4.29-5.15a4.43,4.43,0,0,0-2.62.77,3.94,3.94,0,0,0-1.5,2.14h8.15a4,4,0,0,0-1.46-2.14A4.26,4.26,0,0,0,709.88,297.8Z"/><path class="cls-1" d="M726.62,295.12v3.14a4.52,4.52,0,0,0-3.15,1.09,3.66,3.66,0,0,0-1.21,2.86V309h-2.73v-6.82a6.93,6.93,0,0,1,2-5.18A7,7,0,0,1,726.62,295.12Z"/><rect class="cls-4" width="796.95" height="394.63"/></g></g></svg>